<?xml version="1.0" encoding="UTF-8"?>
<svg width="18px" height="18px" viewBox="0 0 18 18" version="1.1" xmlns="http://www.w3.org/2000/svg" xmlns:xlink="http://www.w3.org/1999/xlink">
    <g stroke="none" stroke-width="1" fill="none" fill-rule="evenodd">
        <path d="M17,9 C17,4.58172178 13.4182782,1 9,1 C4.58172178,1 1,4.58172178 1,9 C1,13.4182782 4.58172178,17 9,17 C13.4182782,17 17,13.4182782 17,9 Z M9.82857143,13.1428571 L9.82857143,9.82857143 L11.1428571,9.82857143 L11.3714286,8.28571429 L9.82857143,8.28571429 L9.82857143,7.28571429 C9.82857143,6.85714286 9.94285714,6.57142857 10.5714286,6.57142857 L11.4285714,6.57142857 L11.4285714,5.17142857 C11.2857143,5.17142857 10.8,5.14285714 10.2285714,5.14285714 C9.02857143,5.14285714 8.17142857,5.91428571 8.17142857,7.14285714 L8.17142857,8.28571429 L6.85714286,8.28571429 L6.85714286,9.82857143 L8.17142857,9.82857143 L8.17142857,13.1428571 L9.82857143,13.1428571 Z" fill="#1877F2"></path>
    </g>
</svg> 